<?xml version="1.0" standalone="no"?>
<!DOCTYPE svg PUBLIC "-//W3C//DTD SVG 20010904//EN"
 "http://www.w3.org/TR/2001/REC-SVG-20010904/DTD/svg10.dtd">
<svg version="1.0" xmlns="http://www.w3.org/2000/svg"
 width="700.000000pt" height="700.000000pt" viewBox="0 0 700.000000 700.000000"
 preserveAspectRatio="xMidYMid meet">
<metadata>
Created by potrace 1.11, written by Peter Selinger 2001-2013
</metadata>
<g transform="translate(0.000000,700.000000) scale(0.100000,-0.100000)"
fill="#000000" stroke="none">
<path d="M1009 4092 l-66 -3 0 -2044 0 -2045 592 0 592 0 1 1413 c0 776 1
1431 1 1454 l1 41 1370 0 1370 0 1 -26 c0 -15 1 -669 1 -1454 l1 -1428 592 0
593 0 -1 2045 c0 1503 -3 2045 -11 2046 -44 2 -4985 3 -5037 1z"/>
</g>
</svg>
