<svg xmlns="http://www.w3.org/2000/svg" width="100" height="18" viewBox="0 0 100 18">
  <path fill="none" stroke="#00E" stroke-linecap="round" stroke-width="3" d="M2.003333,2.00000022 C4.87945951,2.00000022 7.32057062,4.43209877 9.99999967,9 C12.7068269,13.5679012 15.1512713,16.0000002 17.9999997,16.0000002 C20.848728,16.0000002 23.2965055,13.5679012 26.0033327,9 C28.7133518,4.43209877 31.1544633,2.00000022 33.9999997,2.00000022 C36.8455361,2.00000022 39.2899805,4.43209877 41.9999997,9 C44.6786762,13.5679012 47.1264536,16 50.0033327,16 C52.8802117,16 55.3213232,13.5679012 57.9999997,9 C60.704105,4.43209877 63.1485495,2.00000022 65.9999997,2.00000022 C68.8514499,2.00000022 71.2958943,4.43209877 73.9999997,9 C76.7077983,13.5679012 79.1522428,16 81.9999997,16 C84.8477566,16 87.292201,13.5679012 89.9999997,9 C92.5258344,4.30838292 95.192501,1.97504966 97.9999997,2.00000022"/>
</svg>
