<svg xmlns="http://www.w3.org/2000/svg" width="383" height="18" viewBox="0 0 383 18">
  <g fill="#00E" transform="translate(-10.33)">
    <path d="M3.29383759,9.61078814 C5.73227461,5.45373106 8.10843401,3.5 10.3333333,3.5 C12.5582327,3.5 14.9343921,5.45373106 17.3728291,9.61078814 C20.3248496,14.5924941 23.5006451,17.2037037 27,17.2037037 C30.4993549,17.2037037 33.6751504,14.5924941 36.6237802,9.61653929 C39.0915065,5.45703771 41.4716875,3.5 43.6666667,3.5 C45.8616458,3.5 48.2418268,5.45703771 50.7099487,9.61720637 C53.6257157,14.5894525 56.8052104,17.2037037 60.3333333,17.2037037 C63.8614562,17.2037037 67.040951,14.5894525 69.9605973,9.61062953 C72.4198342,5.45639666 74.7992355,3.5 77,3.5 C79.2007645,3.5 81.5801658,5.45639666 84.0425493,9.61596997 C86.9926369,14.5925994 90.1683043,17.2037037 93.6666667,17.2037037 C97.165029,17.2037037 100.340696,14.5925994 103.290327,9.61674237 L100.709673,8.08696133 C98.2437063,12.2469068 95.8638181,14.2037037 93.6666667,14.2037037 C91.4695152,14.2037037 89.0896271,12.2469068 86.6236598,8.08696133 C83.6782902,3.11150457 80.5021359,0.5 77,0.5 C73.4978641,0.5 70.3217098,3.11150457 67.3758826,8.08773373 C64.9350294,12.2500537 62.5589686,14.2037037 60.3333333,14.2037037 C58.1076981,14.2037037 55.7316373,12.2500537 53.2939306,8.09307417 C50.3381349,3.11086352 47.1627603,0.5 43.6666667,0.5 C40.170573,0.5 36.9951985,3.11086352 34.043282,8.08649733 C31.5778619,12.2470121 29.1981018,14.2037037 27,14.2037037 C24.8018982,14.2037037 22.4221381,12.2470121 19.9571135,8.08716441 C17.0400832,3.11417017 13.860687,0.5 10.3333333,0.5 C6.80597963,0.5 3.62658348,3.11417017 0.70616241,8.09291556 L3.29383759,9.61078814 Z"/>
    <path d="M103.293838,9.61078814 C105.732275,5.45373106 108.108434,3.5 110.333333,3.5 C112.558233,3.5 114.934392,5.45373106 117.372829,9.61078814 C120.32485,14.5924941 123.500645,17.2037037 127,17.2037037 C130.499355,17.2037037 133.67515,14.5924941 136.62378,9.61653929 C139.091507,5.45703771 141.471688,3.5 143.666667,3.5 C145.861646,3.5 148.241827,5.45703771 150.709949,9.61720637 C153.625716,14.5894525 156.80521,17.2037037 160.333333,17.2037037 C163.861456,17.2037037 167.040951,14.5894525 169.960597,9.61062953 C172.419834,5.45639666 174.799236,3.5 177,3.5 C179.200764,3.5 181.580166,5.45639666 184.042549,9.61596997 C186.992637,14.5925994 190.168304,17.2037037 193.666667,17.2037037 C197.165029,17.2037037 200.340696,14.5925994 203.290327,9.61674237 L200.709673,8.08696133 C198.243706,12.2469068 195.863818,14.2037037 193.666667,14.2037037 C191.469515,14.2037037 189.089627,12.2469068 186.62366,8.08696133 C183.67829,3.11150457 180.502136,0.5 177,0.5 C173.497864,0.5 170.32171,3.11150457 167.375883,8.08773373 C164.935029,12.2500537 162.558969,14.2037037 160.333333,14.2037037 C158.107698,14.2037037 155.731637,12.2500537 153.293931,8.09307417 C150.338135,3.11086352 147.16276,0.5 143.666667,0.5 C140.170573,0.5 136.995198,3.11086352 134.043282,8.08649733 C131.577862,12.2470121 129.198102,14.2037037 127,14.2037037 C124.801898,14.2037037 122.422138,12.2470121 119.957114,8.08716441 C117.040083,3.11417017 113.860687,0.5 110.333333,0.5 C106.80598,0.5 103.626583,3.11417017 100.706162,8.09291556 L103.293838,9.61078814 Z"/>
    <path d="M203.293838,9.61078814 C205.732275,5.45373106 208.108434,3.5 210.333333,3.5 C212.558233,3.5 214.934392,5.45373106 217.372829,9.61078814 C220.32485,14.5924941 223.500645,17.2037037 227,17.2037037 C230.499355,17.2037037 233.67515,14.5924941 236.62378,9.61653929 C239.091507,5.45703771 241.471688,3.5 243.666667,3.5 C245.861646,3.5 248.241827,5.45703771 250.709949,9.61720637 C253.625716,14.5894525 256.80521,17.2037037 260.333333,17.2037037 C263.861456,17.2037037 267.040951,14.5894525 269.960597,9.61062953 C272.419834,5.45639666 274.799236,3.5 277,3.5 C279.200764,3.5 281.580166,5.45639666 284.042549,9.61596997 C286.992637,14.5925994 290.168304,17.2037037 293.666667,17.2037037 C297.165029,17.2037037 300.340696,14.5925994 303.290327,9.61674237 L300.709673,8.08696133 C298.243706,12.2469068 295.863818,14.2037037 293.666667,14.2037037 C291.469515,14.2037037 289.089627,12.2469068 286.62366,8.08696133 C283.67829,3.11150457 280.502136,0.5 277,0.5 C273.497864,0.5 270.32171,3.11150457 267.375883,8.08773373 C264.935029,12.2500537 262.558969,14.2037037 260.333333,14.2037037 C258.107698,14.2037037 255.731637,12.2500537 253.293931,8.09307417 C250.338135,3.11086352 247.16276,0.5 243.666667,0.5 C240.170573,0.5 236.995198,3.11086352 234.043282,8.08649733 C231.577862,12.2470121 229.198102,14.2037037 227,14.2037037 C224.801898,14.2037037 222.422138,12.2470121 219.957114,8.08716441 C217.040083,3.11417017 213.860687,0.5 210.333333,0.5 C206.80598,0.5 203.626583,3.11417017 200.706162,8.09291556 L203.293838,9.61078814 Z"/>
    <path d="M303.293838,9.61078814 C305.732275,5.45373106 308.108434,3.5 310.333333,3.5 C312.558233,3.5 314.934392,5.45373106 317.372829,9.61078814 C320.32485,14.5924941 323.500645,17.2037037 327,17.2037037 C330.499355,17.2037037 333.67515,14.5924941 336.62378,9.61653929 C339.091507,5.45703771 341.471688,3.5 343.666667,3.5 C345.861646,3.5 348.241827,5.45703771 350.709949,9.61720637 C353.625716,14.5894525 356.80521,17.2037037 360.333333,17.2037037 C363.861456,17.2037037 367.040951,14.5894525 369.960597,9.61062953 C372.419834,5.45639666 374.799236,3.5 377,3.5 C379.200764,3.5 381.580166,5.45639666 384.042549,9.61596997 C386.992637,14.5925994 390.168304,17.2037037 393.666667,17.2037037 C397.165029,17.2037037 400.340696,14.5925994 403.290327,9.61674237 L400.709673,8.08696133 C398.243706,12.2469068 395.863818,14.2037037 393.666667,14.2037037 C391.469515,14.2037037 389.089627,12.2469068 386.62366,8.08696133 C383.67829,3.11150457 380.502136,0.5 377,0.5 C373.497864,0.5 370.32171,3.11150457 367.375883,8.08773373 C364.935029,12.2500537 362.558969,14.2037037 360.333333,14.2037037 C358.107698,14.2037037 355.731637,12.2500537 353.293931,8.09307417 C350.338135,3.11086352 347.16276,0.5 343.666667,0.5 C340.170573,0.5 336.995198,3.11086352 334.043282,8.08649733 C331.577862,12.2470121 329.198102,14.2037037 327,14.2037037 C324.801898,14.2037037 322.422138,12.2470121 319.957114,8.08716441 C317.040083,3.11417017 313.860687,0.5 310.333333,0.5 C306.80598,0.5 303.626583,3.11417017 300.706162,8.09291556 L303.293838,9.61078814 Z"/>
  </g>
</svg>
