<svg xmlns="http://www.w3.org/2000/svg" width="96" height="18" viewBox="0 0 96 18">
  <path fill="none" stroke="#00E" stroke-width="3" d="M-8,9 C-5.32057096,4.43209877 -2.87279318,2.00000022 0.00333333333,2.00000022 C2.87945985,2.00000022 5.32057096,4.43209877 8,9 C10.7068272,13.5679012 13.1512716,16.0000002 16,16.0000002 C18.8487284,16.0000002 21.2965058,13.5679012 24.003333,9 C26.7133522,4.43209877 29.1544636,2.00000022 32,2.00000022 C34.8455364,2.00000022 37.2899808,4.43209877 40,9 C42.6786765,13.5679012 45.1264539,16 48.003333,16 C50.8802121,16 53.3213235,13.5679012 56,9 C58.7041054,4.43209877 61.1485498,2.00000022 64,2.00000022 C66.8514502,2.00000022 69.2958946,4.43209877 72,9 C74.7077986,13.5679012 77.1522431,16 80,16 C82.8477569,16 85.2922014,13.5679012 88,9 C90.5258347,4.30838292 93.1925014,1.97504966 96,2.00000022 C98.8074986,2.02495077 101.474165,4.35828403 104,9"/>
</svg>
