<svg xmlns="http://www.w3.org/2000/svg" width="304" height="18" viewBox="0 0 304 18">
  <g fill="none" fill-rule="evenodd">
    <polygon fill="#00E" fill-rule="nonzero" points="133.337 4 133.337 17.704 153.003 17.704 153.003 4 166.67 4 166.67 17.704 186.337 17.704 186.337 4 200.003 4 200.003 17.704 219.67 17.704 219.67 14.704 203.003 14.704 203.003 1 183.337 1 183.337 14.704 169.67 14.704 169.67 1 150.003 1 150.003 14.704 136.337 14.704 136.337 1 116.67 1 116.67 17.704 119.67 17.704 119.67 4"/>
    <polygon fill="#00E" fill-rule="nonzero" points="233.337 4 233.337 17.704 253.003 17.704 253.003 4 266.67 4 266.67 17.704 286.337 17.704 286.337 4 300.003 4 300.003 17.704 303.003 17.704 303.003 1 283.337 1 283.337 14.704 269.67 14.704 269.67 1 250.003 1 250.003 14.704 236.337 14.704 236.337 1 216.67 1 216.67 17.704 219.67 17.704 219.67 4"/>
    <polygon fill="#00E" fill-rule="nonzero" points="19.67 4 33.337 4 33.337 17.704 53.003 17.704 53.003 4 66.67 4 66.67 17.704 86.337 17.704 86.337 4 100.003 4 100.003 17.704 119.67 17.704 119.67 14.704 103.003 14.704 103.003 1 83.337 1 83.337 14.704 69.67 14.704 69.67 1 50.003 1 50.003 14.704 36.337 14.704 36.337 1 16.67 1 16.67 14.704 0 14.704 0 17.704 19.67 17.704"/>
  </g>
</svg>
