<svg xmlns="http://www.w3.org/2000/svg" width="369" height="18" viewBox="0 0 369 18">
  <g fill="none" fill-rule="evenodd">
    <polygon fill="#00E" fill-rule="nonzero" points="17.667 3.942 34.333 17.646 51 3.942 67.667 17.646 76.953 10.01 75.047 7.693 67.667 13.762 51 .058 34.333 13.762 17.667 .058 .047 14.545 1.953 16.862"/>
    <polygon fill="#00E" fill-rule="nonzero" points="101 17.646 117.667 3.942 134.333 17.646 151 3.942 167.667 17.646 176.953 10.01 175.047 7.693 167.667 13.762 151 .058 134.333 13.762 117.667 .058 101 13.762 84.333 .058 75.047 7.693 76.953 10.01 84.333 3.942"/>
    <polygon fill="#00E" fill-rule="nonzero" points="184.333 3.942 201 17.646 217.667 3.942 234.333 17.646 251 3.942 267.667 17.646 276.953 10.01 275.047 7.693 267.667 13.762 251 .058 234.333 13.762 217.667 .058 201 13.762 184.333 .058 175.047 7.693 176.953 10.01"/>
    <polygon fill="#00E" fill-rule="nonzero" points="301 17.646 317.667 3.942 334.333 17.646 351 3.942 366.714 16.862 368.619 14.545 351 .058 334.333 13.762 317.667 .058 301 13.762 284.333 .058 275.047 7.693 276.953 10.01 284.333 3.942"/>
  </g>
</svg>
